<mxfile host="www.draw.io" modified="2020-01-22T04:41:08.725Z" agent="Mozilla/5.0 (Windows NT 10.0; Win64; x64) AppleWebKit/537.36 (KHTML, like Gecko) Chrome/79.0.3945.130 Safari/537.36" etag="nOANacsLc2x3lz2-YgBe" version="12.5.5" type="github" pages="3">
  <diagram id="CHhvrfTfO5NMeSII0Lua" name="Page-1">
    <mxGraphModel dx="1185" dy="635" grid="1" gridSize="10" guides="1" tooltips="1" connect="1" arrows="1" fold="1" page="1" pageScale="1" pageWidth="827" pageHeight="1169" math="0" shadow="0">
      <root>
        <mxCell id="0"/>
        <mxCell id="1" parent="0"/>
        <mxCell id="K2zouyV7AdBwr3XAkaIj-15" value="" style="group" parent="1" vertex="1" connectable="0">
          <mxGeometry x="50" y="180" width="752.1300000000001" height="490" as="geometry"/>
        </mxCell>
        <mxCell id="K2zouyV7AdBwr3XAkaIj-5" value="&lt;font style=&quot;font-size: 16px&quot;&gt;encoder&lt;/font&gt;" style="rounded=0;whiteSpace=wrap;html=1;dashed=1;fillColor=none;strokeColor=none;" parent="K2zouyV7AdBwr3XAkaIj-15" vertex="1">
          <mxGeometry x="150" y="430" width="120" height="60" as="geometry"/>
        </mxCell>
        <mxCell id="K2zouyV7AdBwr3XAkaIj-6" value="&lt;font style=&quot;font-size: 16px&quot;&gt;decoder&lt;/font&gt;" style="rounded=0;whiteSpace=wrap;html=1;dashed=1;fillColor=none;strokeColor=none;" parent="K2zouyV7AdBwr3XAkaIj-15" vertex="1">
          <mxGeometry x="290" y="430" width="120" height="60" as="geometry"/>
        </mxCell>
        <mxCell id="1g0KAj4QC7h5cuI9oxlS-21" value="&lt;b&gt;Code_N&lt;/b&gt;" style="rounded=1;whiteSpace=wrap;html=1;rotation=90;fillColor=#d0cee2;strokeColor=#56517e;" parent="K2zouyV7AdBwr3XAkaIj-15" vertex="1">
          <mxGeometry x="236.8" y="58.91304347826087" width="88.8" height="39.130434782608695" as="geometry"/>
        </mxCell>
        <mxCell id="1g0KAj4QC7h5cuI9oxlS-22" value="&lt;b&gt;Code_P&lt;/b&gt;" style="rounded=1;whiteSpace=wrap;html=1;rotation=90;fillColor=#fad9d5;strokeColor=#ae4132;" parent="K2zouyV7AdBwr3XAkaIj-15" vertex="1">
          <mxGeometry x="236.8" y="303.47826086956525" width="88.8" height="39.130434782608695" as="geometry"/>
        </mxCell>
        <mxCell id="1g0KAj4QC7h5cuI9oxlS-53" value="" style="group;rotation=-90;" parent="K2zouyV7AdBwr3XAkaIj-15" vertex="1" connectable="0">
          <mxGeometry x="128.26666666666668" y="298.5869565217391" width="177.6" height="48.91304347826087" as="geometry"/>
        </mxCell>
        <mxCell id="1g0KAj4QC7h5cuI9oxlS-54" value="" style="shape=trapezoid;perimeter=trapezoidPerimeter;whiteSpace=wrap;html=1;rotation=-270;fillColor=#fff2cc;strokeColor=#d6b656;" parent="1g0KAj4QC7h5cuI9oxlS-53" vertex="1">
          <mxGeometry width="177.6" height="48.91304347826087" as="geometry"/>
        </mxCell>
        <mxCell id="1g0KAj4QC7h5cuI9oxlS-55" value="" style="line;html=1;perimeter=backbonePerimeter;points=[];outlineConnect=0;strokeColor=#000000;verticalAlign=middle;rounded=1;fontSize=11;endArrow=none;strokeWidth=1;rotation=-90;" parent="1g0KAj4QC7h5cuI9oxlS-53" vertex="1">
          <mxGeometry x="19.73333333333333" y="19.565217391304344" width="138.13333333333333" height="9.782608695652172" as="geometry"/>
        </mxCell>
        <mxCell id="1g0KAj4QC7h5cuI9oxlS-65" value="" style="group;rotation=-90;" parent="K2zouyV7AdBwr3XAkaIj-15" vertex="1" connectable="0">
          <mxGeometry y="274.1304347826087" width="197.33333333333334" height="97.82608695652173" as="geometry"/>
        </mxCell>
        <mxCell id="1g0KAj4QC7h5cuI9oxlS-12" value="" style="group;rotation=-90;" parent="1g0KAj4QC7h5cuI9oxlS-65" vertex="1" connectable="0">
          <mxGeometry x="19.733333333333334" y="19.565217391304344" width="197.33333333333334" height="58.69565217391304" as="geometry"/>
        </mxCell>
        <mxCell id="1g0KAj4QC7h5cuI9oxlS-13" value="" style="rounded=0;whiteSpace=wrap;html=1;rotation=-90;" parent="1g0KAj4QC7h5cuI9oxlS-12" vertex="1">
          <mxGeometry width="197.33333333333334" height="58.69565217391304" as="geometry"/>
        </mxCell>
        <mxCell id="1g0KAj4QC7h5cuI9oxlS-14" value="" style="ellipse;whiteSpace=wrap;html=1;aspect=fixed;fillColor=#fa6800;strokeColor=#C73500;fontColor=#ffffff;rotation=-90;" parent="1g0KAj4QC7h5cuI9oxlS-12" vertex="1">
          <mxGeometry x="78.93333333333334" y="68.4782608695652" width="39.13043478260869" height="39.13043478260869" as="geometry"/>
        </mxCell>
        <mxCell id="1g0KAj4QC7h5cuI9oxlS-15" value="" style="ellipse;whiteSpace=wrap;html=1;aspect=fixed;fillColor=#e51400;strokeColor=#B20000;fontColor=#ffffff;rotation=-90;" parent="1g0KAj4QC7h5cuI9oxlS-12" vertex="1">
          <mxGeometry x="78.93333333333334" y="29.34782608695652" width="39.13043478260869" height="39.13043478260869" as="geometry"/>
        </mxCell>
        <mxCell id="1g0KAj4QC7h5cuI9oxlS-16" value="" style="ellipse;whiteSpace=wrap;html=1;aspect=fixed;fillColor=#f0a30a;strokeColor=#BD7000;fontColor=#ffffff;rotation=-90;" parent="1g0KAj4QC7h5cuI9oxlS-12" vertex="1">
          <mxGeometry x="78.93333333333334" y="-9.782608695652172" width="39.13043478260869" height="39.13043478260869" as="geometry"/>
        </mxCell>
        <mxCell id="1g0KAj4QC7h5cuI9oxlS-17" value="" style="ellipse;whiteSpace=wrap;html=1;aspect=fixed;fillColor=#e3c800;strokeColor=#B09500;fontColor=#ffffff;rotation=-90;" parent="1g0KAj4QC7h5cuI9oxlS-12" vertex="1">
          <mxGeometry x="78.93333333333334" y="-48.91304347826087" width="39.13043478260869" height="39.13043478260869" as="geometry"/>
        </mxCell>
        <mxCell id="1g0KAj4QC7h5cuI9oxlS-66" value="" style="group;rotation=-90;" parent="K2zouyV7AdBwr3XAkaIj-15" vertex="1" connectable="0">
          <mxGeometry y="29.565217391304348" width="197.33333333333334" height="97.82608695652173" as="geometry"/>
        </mxCell>
        <mxCell id="1g0KAj4QC7h5cuI9oxlS-8" value="" style="group;rotation=-90;" parent="1g0KAj4QC7h5cuI9oxlS-66" vertex="1" connectable="0">
          <mxGeometry x="19.733333333333334" y="19.565217391304344" width="197.33333333333334" height="58.69565217391304" as="geometry"/>
        </mxCell>
        <mxCell id="1g0KAj4QC7h5cuI9oxlS-1" value="" style="rounded=0;whiteSpace=wrap;html=1;rotation=-90;" parent="1g0KAj4QC7h5cuI9oxlS-8" vertex="1">
          <mxGeometry width="197.33333333333334" height="58.69565217391304" as="geometry"/>
        </mxCell>
        <mxCell id="1g0KAj4QC7h5cuI9oxlS-4" value="" style="ellipse;whiteSpace=wrap;html=1;aspect=fixed;fillColor=#647687;strokeColor=#314354;fontColor=#ffffff;rotation=-90;" parent="1g0KAj4QC7h5cuI9oxlS-8" vertex="1">
          <mxGeometry x="78.93333333333334" y="68.4782608695652" width="39.13043478260869" height="39.13043478260869" as="geometry"/>
        </mxCell>
        <mxCell id="1g0KAj4QC7h5cuI9oxlS-5" value="" style="ellipse;whiteSpace=wrap;html=1;aspect=fixed;fillColor=#76608a;strokeColor=#432D57;fontColor=#ffffff;rotation=-90;" parent="1g0KAj4QC7h5cuI9oxlS-8" vertex="1">
          <mxGeometry x="78.93333333333334" y="29.34782608695652" width="39.13043478260869" height="39.13043478260869" as="geometry"/>
        </mxCell>
        <mxCell id="1g0KAj4QC7h5cuI9oxlS-6" value="" style="ellipse;whiteSpace=wrap;html=1;aspect=fixed;fillColor=#6d8764;strokeColor=#3A5431;fontColor=#ffffff;rotation=-90;" parent="1g0KAj4QC7h5cuI9oxlS-8" vertex="1">
          <mxGeometry x="78.93333333333334" y="-9.782608695652172" width="39.13043478260869" height="39.13043478260869" as="geometry"/>
        </mxCell>
        <mxCell id="1g0KAj4QC7h5cuI9oxlS-7" value="" style="ellipse;whiteSpace=wrap;html=1;aspect=fixed;fillColor=#a0522d;strokeColor=#6D1F00;fontColor=#ffffff;rotation=-90;" parent="1g0KAj4QC7h5cuI9oxlS-8" vertex="1">
          <mxGeometry x="78.93333333333334" y="-48.91304347826087" width="39.13043478260869" height="39.13043478260869" as="geometry"/>
        </mxCell>
        <mxCell id="1g0KAj4QC7h5cuI9oxlS-19" value="&lt;font style=&quot;font-size: 16px&quot;&gt;Negative&lt;/font&gt;" style="rounded=0;whiteSpace=wrap;html=1;strokeColor=none;rotation=90;" parent="1g0KAj4QC7h5cuI9oxlS-66" vertex="1">
          <mxGeometry x="9.866666666666667" y="29.34782608695652" width="118.4" height="29.34782608695652" as="geometry"/>
        </mxCell>
        <mxCell id="1g0KAj4QC7h5cuI9oxlS-69" value="" style="group;rotation=90;fillColor=none;strokeColor=none;fontColor=#ffffff;" parent="K2zouyV7AdBwr3XAkaIj-15" vertex="1" connectable="0">
          <mxGeometry x="128.26666666666668" y="54.02173913043478" width="177.6" height="405.97826086956525" as="geometry"/>
        </mxCell>
        <mxCell id="1g0KAj4QC7h5cuI9oxlS-50" value="" style="group;rotation=-90;" parent="1g0KAj4QC7h5cuI9oxlS-69" vertex="1" connectable="0">
          <mxGeometry width="177.6" height="405.97826086956525" as="geometry"/>
        </mxCell>
        <mxCell id="1g0KAj4QC7h5cuI9oxlS-51" value="" style="shape=trapezoid;perimeter=trapezoidPerimeter;whiteSpace=wrap;html=1;rotation=-270;fillColor=#f8cecc;strokeColor=#b85450;" parent="1g0KAj4QC7h5cuI9oxlS-50" vertex="1">
          <mxGeometry width="177.6" height="48.913043478260875" as="geometry"/>
        </mxCell>
        <mxCell id="1g0KAj4QC7h5cuI9oxlS-52" value="" style="line;html=1;perimeter=backbonePerimeter;points=[];outlineConnect=0;strokeColor=#000000;verticalAlign=middle;rounded=1;fontSize=11;endArrow=none;strokeWidth=1;rotation=-90;" parent="1g0KAj4QC7h5cuI9oxlS-50" vertex="1">
          <mxGeometry x="19.73333333333333" y="19.56521739130435" width="138.13333333333333" height="9.782608695652176" as="geometry"/>
        </mxCell>
        <mxCell id="K2zouyV7AdBwr3XAkaIj-4" value="" style="rounded=0;whiteSpace=wrap;html=1;fillColor=none;dashed=1;" parent="1g0KAj4QC7h5cuI9oxlS-50" vertex="1">
          <mxGeometry x="39.46666666666666" y="-102.71739130434784" width="78.93333333333332" height="489.13043478260875" as="geometry"/>
        </mxCell>
        <mxCell id="1g0KAj4QC7h5cuI9oxlS-18" value="&lt;font style=&quot;font-size: 16px&quot;&gt;Positive&lt;/font&gt;" style="rounded=0;whiteSpace=wrap;html=1;strokeColor=none;rotation=90;" parent="1g0KAj4QC7h5cuI9oxlS-50" vertex="1">
          <mxGeometry x="-118.39999999999999" y="254.34782608695656" width="118.39999999999999" height="29.347826086956527" as="geometry"/>
        </mxCell>
        <mxCell id="1g0KAj4QC7h5cuI9oxlS-74" value="" style="group;rotation=-90;" parent="K2zouyV7AdBwr3XAkaIj-15" vertex="1" connectable="0">
          <mxGeometry x="256.53333333333336" y="54.02173913043478" width="177.6" height="48.91304347826087" as="geometry"/>
        </mxCell>
        <mxCell id="1g0KAj4QC7h5cuI9oxlS-75" value="" style="group;rotation=-270;" parent="1g0KAj4QC7h5cuI9oxlS-74" vertex="1" connectable="0">
          <mxGeometry width="177.6" height="48.91304347826087" as="geometry"/>
        </mxCell>
        <mxCell id="1g0KAj4QC7h5cuI9oxlS-76" value="" style="shape=trapezoid;perimeter=trapezoidPerimeter;whiteSpace=wrap;html=1;rotation=-450;fillColor=#e1d5e7;strokeColor=#9673a6;" parent="1g0KAj4QC7h5cuI9oxlS-75" vertex="1">
          <mxGeometry width="177.6" height="48.91304347826087" as="geometry"/>
        </mxCell>
        <mxCell id="1g0KAj4QC7h5cuI9oxlS-77" value="" style="line;html=1;perimeter=backbonePerimeter;points=[];outlineConnect=0;strokeColor=#000000;verticalAlign=middle;rounded=1;fontSize=11;endArrow=none;strokeWidth=1;rotation=-270;" parent="1g0KAj4QC7h5cuI9oxlS-75" vertex="1">
          <mxGeometry x="19.73333333333333" y="19.565217391304344" width="138.13333333333333" height="9.782608695652172" as="geometry"/>
        </mxCell>
        <mxCell id="tNX9rCzWR_ukR634oyPF-2" style="edgeStyle=orthogonalEdgeStyle;rounded=0;orthogonalLoop=1;jettySize=auto;html=1;exitX=0.5;exitY=1;exitDx=0;exitDy=0;entryX=0.5;entryY=1;entryDx=0;entryDy=0;" parent="K2zouyV7AdBwr3XAkaIj-15" source="1g0KAj4QC7h5cuI9oxlS-1" target="1g0KAj4QC7h5cuI9oxlS-51" edge="1">
          <mxGeometry relative="1" as="geometry"/>
        </mxCell>
        <mxCell id="tNX9rCzWR_ukR634oyPF-3" style="edgeStyle=orthogonalEdgeStyle;rounded=0;orthogonalLoop=1;jettySize=auto;html=1;exitX=0.5;exitY=1;exitDx=0;exitDy=0;entryX=0.5;entryY=1;entryDx=0;entryDy=0;" parent="K2zouyV7AdBwr3XAkaIj-15" source="1g0KAj4QC7h5cuI9oxlS-13" target="1g0KAj4QC7h5cuI9oxlS-54" edge="1">
          <mxGeometry relative="1" as="geometry"/>
        </mxCell>
        <mxCell id="tNX9rCzWR_ukR634oyPF-7" style="edgeStyle=orthogonalEdgeStyle;rounded=0;orthogonalLoop=1;jettySize=auto;html=1;exitX=0.5;exitY=0;exitDx=0;exitDy=0;entryX=0.5;entryY=0;entryDx=0;entryDy=0;" parent="K2zouyV7AdBwr3XAkaIj-15" source="1g0KAj4QC7h5cuI9oxlS-21" target="1g0KAj4QC7h5cuI9oxlS-76" edge="1">
          <mxGeometry relative="1" as="geometry"/>
        </mxCell>
        <mxCell id="tNX9rCzWR_ukR634oyPF-4" style="edgeStyle=orthogonalEdgeStyle;rounded=0;orthogonalLoop=1;jettySize=auto;html=1;exitX=0.5;exitY=0;exitDx=0;exitDy=0;entryX=0.5;entryY=1;entryDx=0;entryDy=0;" parent="K2zouyV7AdBwr3XAkaIj-15" source="1g0KAj4QC7h5cuI9oxlS-54" target="1g0KAj4QC7h5cuI9oxlS-22" edge="1">
          <mxGeometry relative="1" as="geometry"/>
        </mxCell>
        <mxCell id="tNX9rCzWR_ukR634oyPF-5" style="edgeStyle=orthogonalEdgeStyle;rounded=0;orthogonalLoop=1;jettySize=auto;html=1;exitX=0.5;exitY=0;exitDx=0;exitDy=0;entryX=0.5;entryY=1;entryDx=0;entryDy=0;" parent="K2zouyV7AdBwr3XAkaIj-15" source="1g0KAj4QC7h5cuI9oxlS-51" target="1g0KAj4QC7h5cuI9oxlS-21" edge="1">
          <mxGeometry relative="1" as="geometry"/>
        </mxCell>
        <mxCell id="tNX9rCzWR_ukR634oyPF-81" value="" style="group" parent="K2zouyV7AdBwr3XAkaIj-15" vertex="1" connectable="0">
          <mxGeometry x="266.40000000000003" y="10" width="485.73" height="396.85" as="geometry"/>
        </mxCell>
        <mxCell id="Hgnej_yuew5jr4YNEwo6-7" style="edgeStyle=orthogonalEdgeStyle;rounded=0;orthogonalLoop=1;jettySize=auto;html=1;exitX=0.5;exitY=0;exitDx=0;exitDy=0;entryX=0.5;entryY=1;entryDx=0;entryDy=0;" parent="tNX9rCzWR_ukR634oyPF-81" source="tNX9rCzWR_ukR634oyPF-8" target="RDXlojw9-ZO4NyErcKgJ-2" edge="1">
          <mxGeometry relative="1" as="geometry"/>
        </mxCell>
        <mxCell id="tNX9rCzWR_ukR634oyPF-8" value="" style="rounded=0;whiteSpace=wrap;html=1;rotation=90;" parent="tNX9rCzWR_ukR634oyPF-81" vertex="1">
          <mxGeometry y="166.30434782608694" width="424.26666666666665" height="58.69565217391304" as="geometry"/>
        </mxCell>
        <mxCell id="tNX9rCzWR_ukR634oyPF-9" value="" style="rounded=0;whiteSpace=wrap;html=1;rotation=90;" parent="tNX9rCzWR_ukR634oyPF-81" vertex="1">
          <mxGeometry x="182.53333333333333" width="59.2" height="48.91304347826087" as="geometry"/>
        </mxCell>
        <mxCell id="tNX9rCzWR_ukR634oyPF-10" value="" style="rounded=0;whiteSpace=wrap;html=1;rotation=90;" parent="tNX9rCzWR_ukR634oyPF-81" vertex="1">
          <mxGeometry x="182.53333333333333" y="283.695652173913" width="59.2" height="48.91304347826087" as="geometry"/>
        </mxCell>
        <mxCell id="tNX9rCzWR_ukR634oyPF-11" value="" style="rounded=0;whiteSpace=wrap;html=1;rotation=90;" parent="tNX9rCzWR_ukR634oyPF-81" vertex="1">
          <mxGeometry x="182.53333333333333" y="224.99999999999997" width="59.2" height="48.91304347826087" as="geometry"/>
        </mxCell>
        <mxCell id="tNX9rCzWR_ukR634oyPF-12" value="" style="rounded=0;whiteSpace=wrap;html=1;rotation=90;" parent="tNX9rCzWR_ukR634oyPF-81" vertex="1">
          <mxGeometry x="182.53333333333333" y="117.39130434782608" width="59.2" height="48.91304347826087" as="geometry"/>
        </mxCell>
        <mxCell id="tNX9rCzWR_ukR634oyPF-13" value="" style="rounded=0;whiteSpace=wrap;html=1;rotation=90;" parent="tNX9rCzWR_ukR634oyPF-81" vertex="1">
          <mxGeometry x="182.53333333333333" y="58.69565217391304" width="59.2" height="48.91304347826087" as="geometry"/>
        </mxCell>
        <mxCell id="tNX9rCzWR_ukR634oyPF-15" value="" style="rounded=0;whiteSpace=wrap;html=1;rotation=90;" parent="tNX9rCzWR_ukR634oyPF-81" vertex="1">
          <mxGeometry x="182.53333333333333" y="342.39130434782606" width="59.2" height="48.91304347826087" as="geometry"/>
        </mxCell>
        <mxCell id="tNX9rCzWR_ukR634oyPF-16" value="&lt;font style=&quot;font-size: 16px&quot;&gt;&lt;b&gt;...&lt;/b&gt;&lt;/font&gt;" style="whiteSpace=wrap;html=1;aspect=fixed;rotation=90;strokeColor=none;" parent="tNX9rCzWR_ukR634oyPF-81" vertex="1">
          <mxGeometry x="212.13333333333333" y="190.76086956521738" width="9.782608695652172" height="9.782608695652172" as="geometry"/>
        </mxCell>
        <mxCell id="tNX9rCzWR_ukR634oyPF-17" value="&lt;b&gt;task-1&lt;/b&gt;" style="rounded=0;whiteSpace=wrap;html=1;strokeColor=none;rotation=90;strokeWidth=3;" parent="tNX9rCzWR_ukR634oyPF-81" vertex="1">
          <mxGeometry x="141.09333333333333" y="17.60869565217391" width="39.46666666666667" height="14.67391304347826" as="geometry"/>
        </mxCell>
        <mxCell id="tNX9rCzWR_ukR634oyPF-18" value="&lt;b&gt;task-2&lt;/b&gt;" style="rounded=0;whiteSpace=wrap;html=1;strokeColor=none;rotation=90;" parent="tNX9rCzWR_ukR634oyPF-81" vertex="1">
          <mxGeometry x="143.06666666666666" y="73.3695652173913" width="39.46666666666667" height="19.565217391304344" as="geometry"/>
        </mxCell>
        <mxCell id="tNX9rCzWR_ukR634oyPF-19" value="&lt;b&gt;task-&lt;br&gt;n-2&lt;/b&gt;" style="rounded=0;whiteSpace=wrap;html=1;strokeColor=none;rotation=90;" parent="tNX9rCzWR_ukR634oyPF-81" vertex="1">
          <mxGeometry x="143.06666666666666" y="239.67391304347825" width="39.46666666666667" height="19.565217391304344" as="geometry"/>
        </mxCell>
        <mxCell id="tNX9rCzWR_ukR634oyPF-20" value="&lt;b&gt;task-&lt;br&gt;n-3&lt;/b&gt;" style="rounded=0;whiteSpace=wrap;html=1;strokeColor=none;rotation=90;" parent="tNX9rCzWR_ukR634oyPF-81" vertex="1">
          <mxGeometry x="143.06666666666666" y="298.36956521739125" width="39.46666666666667" height="19.565217391304344" as="geometry"/>
        </mxCell>
        <mxCell id="tNX9rCzWR_ukR634oyPF-21" value="&lt;b&gt;task-n&lt;/b&gt;" style="rounded=0;whiteSpace=wrap;html=1;strokeColor=none;rotation=90;" parent="tNX9rCzWR_ukR634oyPF-81" vertex="1">
          <mxGeometry x="143.06666666666666" y="357.0652173913043" width="39.46666666666667" height="19.565217391304344" as="geometry"/>
        </mxCell>
        <mxCell id="tNX9rCzWR_ukR634oyPF-22" value="&lt;b&gt;task-3&lt;/b&gt;" style="rounded=0;whiteSpace=wrap;html=1;strokeColor=none;rotation=90;" parent="tNX9rCzWR_ukR634oyPF-81" vertex="1">
          <mxGeometry x="143.06666666666666" y="132.06521739130434" width="39.46666666666667" height="19.565217391304344" as="geometry"/>
        </mxCell>
        <mxCell id="tNX9rCzWR_ukR634oyPF-57" value="" style="group" parent="tNX9rCzWR_ukR634oyPF-81" vertex="1" connectable="0">
          <mxGeometry x="207.69333333333333" y="127.17391304347825" width="10.853333333333333" height="40.10869565217391" as="geometry"/>
        </mxCell>
        <mxCell id="tNX9rCzWR_ukR634oyPF-58" value="" style="ellipse;whiteSpace=wrap;html=1;aspect=fixed;fillColor=#1ba1e2;strokeColor=#006EAF;fontColor=#ffffff;" parent="tNX9rCzWR_ukR634oyPF-57" vertex="1">
          <mxGeometry y="14.18478260869565" width="10.76086956521739" height="10.76086956521739" as="geometry"/>
        </mxCell>
        <mxCell id="tNX9rCzWR_ukR634oyPF-59" value="" style="ellipse;whiteSpace=wrap;html=1;aspect=fixed;fillColor=#a0522d;strokeColor=#6D1F00;fontColor=#ffffff;" parent="tNX9rCzWR_ukR634oyPF-57" vertex="1">
          <mxGeometry y="29.34782608695652" width="10.76086956521739" height="10.76086956521739" as="geometry"/>
        </mxCell>
        <mxCell id="tNX9rCzWR_ukR634oyPF-60" value="" style="ellipse;whiteSpace=wrap;html=1;aspect=fixed;fillColor=#e3c800;strokeColor=#B09500;fontColor=#ffffff;" parent="tNX9rCzWR_ukR634oyPF-57" vertex="1">
          <mxGeometry width="10.76086956521739" height="10.76086956521739" as="geometry"/>
        </mxCell>
        <mxCell id="tNX9rCzWR_ukR634oyPF-61" value="" style="group" parent="tNX9rCzWR_ukR634oyPF-81" vertex="1" connectable="0">
          <mxGeometry x="206.70666666666668" y="224.99999999999997" width="10.853333333333333" height="40.10869565217391" as="geometry"/>
        </mxCell>
        <mxCell id="tNX9rCzWR_ukR634oyPF-62" value="" style="ellipse;whiteSpace=wrap;html=1;aspect=fixed;fillColor=#d0cee2;strokeColor=#56517e;" parent="tNX9rCzWR_ukR634oyPF-61" vertex="1">
          <mxGeometry y="14.18478260869565" width="10.76086956521739" height="10.76086956521739" as="geometry"/>
        </mxCell>
        <mxCell id="tNX9rCzWR_ukR634oyPF-63" value="" style="ellipse;whiteSpace=wrap;html=1;aspect=fixed;fillColor=#b1ddf0;strokeColor=#10739e;" parent="tNX9rCzWR_ukR634oyPF-61" vertex="1">
          <mxGeometry y="29.34782608695652" width="10.76086956521739" height="10.76086956521739" as="geometry"/>
        </mxCell>
        <mxCell id="tNX9rCzWR_ukR634oyPF-64" value="" style="ellipse;whiteSpace=wrap;html=1;aspect=fixed;fillColor=#fad9d5;strokeColor=#ae4132;" parent="tNX9rCzWR_ukR634oyPF-61" vertex="1">
          <mxGeometry width="10.76086956521739" height="10.76086956521739" as="geometry"/>
        </mxCell>
        <mxCell id="tNX9rCzWR_ukR634oyPF-65" value="" style="group" parent="tNX9rCzWR_ukR634oyPF-81" vertex="1" connectable="0">
          <mxGeometry x="206.21333333333334" y="290.54347826086956" width="10.853333333333333" height="40.10869565217391" as="geometry"/>
        </mxCell>
        <mxCell id="tNX9rCzWR_ukR634oyPF-66" value="" style="ellipse;whiteSpace=wrap;html=1;aspect=fixed;gradientColor=#ffa500;fillColor=#ffcd28;strokeColor=#d79b00;" parent="tNX9rCzWR_ukR634oyPF-65" vertex="1">
          <mxGeometry y="14.18478260869565" width="10.76086956521739" height="10.76086956521739" as="geometry"/>
        </mxCell>
        <mxCell id="tNX9rCzWR_ukR634oyPF-67" value="" style="ellipse;whiteSpace=wrap;html=1;aspect=fixed;fillColor=#fa6800;strokeColor=#C73500;fontColor=#ffffff;" parent="tNX9rCzWR_ukR634oyPF-65" vertex="1">
          <mxGeometry y="29.34782608695652" width="10.76086956521739" height="10.76086956521739" as="geometry"/>
        </mxCell>
        <mxCell id="tNX9rCzWR_ukR634oyPF-68" value="" style="ellipse;whiteSpace=wrap;html=1;aspect=fixed;gradientColor=#7ea6e0;fillColor=#dae8fc;strokeColor=#6c8ebf;" parent="tNX9rCzWR_ukR634oyPF-65" vertex="1">
          <mxGeometry width="9.782608695652172" height="9.782608695652172" as="geometry"/>
        </mxCell>
        <mxCell id="tNX9rCzWR_ukR634oyPF-69" value="" style="group" parent="tNX9rCzWR_ukR634oyPF-81" vertex="1" connectable="0">
          <mxGeometry x="206.21333333333334" y="346.7934782608695" width="10.853333333333333" height="40.10869565217391" as="geometry"/>
        </mxCell>
        <mxCell id="tNX9rCzWR_ukR634oyPF-70" value="" style="ellipse;whiteSpace=wrap;html=1;aspect=fixed;gradientColor=#ffd966;fillColor=#fff2cc;strokeColor=#d6b656;" parent="tNX9rCzWR_ukR634oyPF-69" vertex="1">
          <mxGeometry y="14.18478260869565" width="10.76086956521739" height="10.76086956521739" as="geometry"/>
        </mxCell>
        <mxCell id="tNX9rCzWR_ukR634oyPF-71" value="" style="ellipse;whiteSpace=wrap;html=1;aspect=fixed;fillColor=#647687;strokeColor=#314354;fontColor=#ffffff;" parent="tNX9rCzWR_ukR634oyPF-69" vertex="1">
          <mxGeometry y="29.34782608695652" width="10.76086956521739" height="10.76086956521739" as="geometry"/>
        </mxCell>
        <mxCell id="tNX9rCzWR_ukR634oyPF-72" value="" style="ellipse;whiteSpace=wrap;html=1;aspect=fixed;gradientColor=#d5739d;fillColor=#e6d0de;strokeColor=#996185;" parent="tNX9rCzWR_ukR634oyPF-69" vertex="1">
          <mxGeometry width="10.76086956521739" height="10.76086956521739" as="geometry"/>
        </mxCell>
        <mxCell id="tNX9rCzWR_ukR634oyPF-53" value="" style="group" parent="tNX9rCzWR_ukR634oyPF-81" vertex="1" connectable="0">
          <mxGeometry x="207.69333333333333" y="63.097826086956516" width="10.853333333333333" height="40.10869565217391" as="geometry"/>
        </mxCell>
        <mxCell id="tNX9rCzWR_ukR634oyPF-54" value="" style="ellipse;whiteSpace=wrap;html=1;aspect=fixed;fillColor=#aa00ff;strokeColor=#7700CC;fontColor=#ffffff;" parent="tNX9rCzWR_ukR634oyPF-53" vertex="1">
          <mxGeometry y="14.18478260869565" width="10.76086956521739" height="10.76086956521739" as="geometry"/>
        </mxCell>
        <mxCell id="tNX9rCzWR_ukR634oyPF-55" value="" style="ellipse;whiteSpace=wrap;html=1;aspect=fixed;fillColor=#e3c800;strokeColor=#B09500;fontColor=#ffffff;" parent="tNX9rCzWR_ukR634oyPF-53" vertex="1">
          <mxGeometry y="29.34782608695652" width="10.76086956521739" height="10.76086956521739" as="geometry"/>
        </mxCell>
        <mxCell id="tNX9rCzWR_ukR634oyPF-56" value="" style="ellipse;whiteSpace=wrap;html=1;aspect=fixed;fillColor=#a20025;strokeColor=#6F0000;fontColor=#ffffff;" parent="tNX9rCzWR_ukR634oyPF-53" vertex="1">
          <mxGeometry width="10.76086956521739" height="10.76086956521739" as="geometry"/>
        </mxCell>
        <mxCell id="tNX9rCzWR_ukR634oyPF-48" value="" style="group" parent="tNX9rCzWR_ukR634oyPF-81" vertex="1" connectable="0">
          <mxGeometry x="207.69333333333333" y="4.891304347826086" width="10.853333333333333" height="40.10869565217391" as="geometry"/>
        </mxCell>
        <mxCell id="tNX9rCzWR_ukR634oyPF-34" value="" style="ellipse;whiteSpace=wrap;html=1;aspect=fixed;fillColor=#e1d5e7;strokeColor=#9673a6;" parent="tNX9rCzWR_ukR634oyPF-48" vertex="1">
          <mxGeometry y="14.18478260869565" width="10.76086956521739" height="10.76086956521739" as="geometry"/>
        </mxCell>
        <mxCell id="tNX9rCzWR_ukR634oyPF-46" value="" style="ellipse;whiteSpace=wrap;html=1;aspect=fixed;fillColor=#d80073;strokeColor=#A50040;fontColor=#ffffff;" parent="tNX9rCzWR_ukR634oyPF-48" vertex="1">
          <mxGeometry y="29.34782608695652" width="10.76086956521739" height="10.76086956521739" as="geometry"/>
        </mxCell>
        <mxCell id="tNX9rCzWR_ukR634oyPF-47" value="" style="ellipse;whiteSpace=wrap;html=1;aspect=fixed;fillColor=#ffe6cc;strokeColor=#d79b00;" parent="tNX9rCzWR_ukR634oyPF-48" vertex="1">
          <mxGeometry width="10.76086956521739" height="10.76086956521739" as="geometry"/>
        </mxCell>
        <mxCell id="RDXlojw9-ZO4NyErcKgJ-2" value="CNN" style="rounded=0;whiteSpace=wrap;html=1;rotation=90;fillColor=#f8cecc;strokeColor=#b85450;" parent="tNX9rCzWR_ukR634oyPF-81" vertex="1">
          <mxGeometry x="315.73333333333335" y="166.30434782608694" width="118.4" height="58.69565217391304" as="geometry"/>
        </mxCell>
        <mxCell id="yATNsBb3q5yBskkvt2-H-1" value="" style="group" vertex="1" connectable="0" parent="tNX9rCzWR_ukR634oyPF-81">
          <mxGeometry x="276.26666666666665" y="-107.8291304347826" width="197.33333333333334" height="97.82608695652173" as="geometry"/>
        </mxCell>
        <mxCell id="K2zouyV7AdBwr3XAkaIj-16" value="" style="group" parent="yATNsBb3q5yBskkvt2-H-1" vertex="1" connectable="0">
          <mxGeometry width="197.33333333333334" height="97.82608695652173" as="geometry"/>
        </mxCell>
        <mxCell id="K2zouyV7AdBwr3XAkaIj-7" value="" style="group;rotation=0;" parent="K2zouyV7AdBwr3XAkaIj-16" vertex="1" connectable="0">
          <mxGeometry width="197.33333333333334" height="97.82608695652173" as="geometry"/>
        </mxCell>
        <mxCell id="K2zouyV7AdBwr3XAkaIj-8" value="" style="group;rotation=0;" parent="K2zouyV7AdBwr3XAkaIj-7" vertex="1" connectable="0">
          <mxGeometry y="39.13043478260869" width="197.33333333333334" height="58.69565217391304" as="geometry"/>
        </mxCell>
        <mxCell id="K2zouyV7AdBwr3XAkaIj-9" value="" style="rounded=0;whiteSpace=wrap;html=1;rotation=0;" parent="K2zouyV7AdBwr3XAkaIj-8" vertex="1">
          <mxGeometry width="197.33333333333334" height="58.69565217391304" as="geometry"/>
        </mxCell>
        <mxCell id="K2zouyV7AdBwr3XAkaIj-10" value="" style="ellipse;whiteSpace=wrap;html=1;aspect=fixed;fillColor=#a0522d;strokeColor=#6D1F00;fontColor=#ffffff;rotation=0;" parent="K2zouyV7AdBwr3XAkaIj-8" vertex="1">
          <mxGeometry x="19.733333333333334" y="9.782608695652172" width="39.13043478260869" height="39.13043478260869" as="geometry"/>
        </mxCell>
        <mxCell id="K2zouyV7AdBwr3XAkaIj-11" value="" style="ellipse;whiteSpace=wrap;html=1;aspect=fixed;fillColor=#fa6800;strokeColor=#C73500;fontColor=#ffffff;rotation=0;" parent="K2zouyV7AdBwr3XAkaIj-8" vertex="1">
          <mxGeometry x="59.2" y="9.782608695652172" width="39.13043478260869" height="39.13043478260869" as="geometry"/>
        </mxCell>
        <mxCell id="K2zouyV7AdBwr3XAkaIj-12" value="" style="ellipse;whiteSpace=wrap;html=1;aspect=fixed;fillColor=#1ba1e2;strokeColor=#006EAF;fontColor=#ffffff;rotation=0;" parent="K2zouyV7AdBwr3XAkaIj-8" vertex="1">
          <mxGeometry x="98.66666666666667" y="9.782608695652172" width="39.13043478260869" height="39.13043478260869" as="geometry"/>
        </mxCell>
        <mxCell id="K2zouyV7AdBwr3XAkaIj-13" value="" style="ellipse;whiteSpace=wrap;html=1;aspect=fixed;fillColor=#d80073;strokeColor=#A50040;fontColor=#ffffff;rotation=0;" parent="K2zouyV7AdBwr3XAkaIj-8" vertex="1">
          <mxGeometry x="138.13333333333333" y="9.782608695652172" width="39.13043478260869" height="39.13043478260869" as="geometry"/>
        </mxCell>
        <mxCell id="K2zouyV7AdBwr3XAkaIj-14" value="&lt;p&gt;&lt;font style=&quot;font-size: 16px&quot;&gt;Testing Data&lt;/font&gt;&lt;/p&gt;" style="rounded=0;whiteSpace=wrap;html=1;strokeColor=none;rotation=0;" parent="K2zouyV7AdBwr3XAkaIj-7" vertex="1">
          <mxGeometry x="39.46666666666667" width="118.4" height="29.34782608695652" as="geometry"/>
        </mxCell>
        <mxCell id="yATNsBb3q5yBskkvt2-H-12" value="" style="group" vertex="1" connectable="0" parent="tNX9rCzWR_ukR634oyPF-81">
          <mxGeometry x="283.6" y="39.95" width="83.73000000000002" height="20" as="geometry"/>
        </mxCell>
        <mxCell id="yATNsBb3q5yBskkvt2-H-2" value="" style="rounded=0;whiteSpace=wrap;html=1;" vertex="1" parent="yATNsBb3q5yBskkvt2-H-12">
          <mxGeometry width="83.73" height="20" as="geometry"/>
        </mxCell>
        <mxCell id="yATNsBb3q5yBskkvt2-H-5" value="" style="ellipse;whiteSpace=wrap;html=1;aspect=fixed;fillColor=#FFFF99;strokeColor=#d79b00;" vertex="1" parent="yATNsBb3q5yBskkvt2-H-12">
          <mxGeometry x="9.999999999999943" y="3.4499999999999957" width="13.1" height="13.1" as="geometry"/>
        </mxCell>
        <mxCell id="yATNsBb3q5yBskkvt2-H-8" value="" style="ellipse;whiteSpace=wrap;html=1;aspect=fixed;fillColor=#dae8fc;strokeColor=#6c8ebf;" vertex="1" parent="yATNsBb3q5yBskkvt2-H-12">
          <mxGeometry x="59.99999999999994" y="3.450000000000003" width="13.1" height="13.1" as="geometry"/>
        </mxCell>
        <mxCell id="yATNsBb3q5yBskkvt2-H-7" value="" style="ellipse;whiteSpace=wrap;html=1;aspect=fixed;fillColor=#e1d5e7;strokeColor=#9673a6;" vertex="1" parent="yATNsBb3q5yBskkvt2-H-12">
          <mxGeometry x="35.30999999999989" y="3.450000000000003" width="13.1" height="13.1" as="geometry"/>
        </mxCell>
        <mxCell id="yATNsBb3q5yBskkvt2-H-13" value="" style="group" vertex="1" connectable="0" parent="tNX9rCzWR_ukR634oyPF-81">
          <mxGeometry x="383.59999999999997" y="39.94999999999999" width="83.73000000000002" height="20" as="geometry"/>
        </mxCell>
        <mxCell id="yATNsBb3q5yBskkvt2-H-14" value="" style="rounded=0;whiteSpace=wrap;html=1;" vertex="1" parent="yATNsBb3q5yBskkvt2-H-13">
          <mxGeometry width="83.73" height="20" as="geometry"/>
        </mxCell>
        <mxCell id="yATNsBb3q5yBskkvt2-H-15" value="" style="ellipse;whiteSpace=wrap;html=1;aspect=fixed;fillColor=#fad7ac;strokeColor=#b46504;" vertex="1" parent="yATNsBb3q5yBskkvt2-H-13">
          <mxGeometry x="9.999999999999943" y="3.4499999999999957" width="13.1" height="13.1" as="geometry"/>
        </mxCell>
        <mxCell id="yATNsBb3q5yBskkvt2-H-16" value="" style="ellipse;whiteSpace=wrap;html=1;aspect=fixed;fillColor=#b1ddf0;strokeColor=#10739e;" vertex="1" parent="yATNsBb3q5yBskkvt2-H-13">
          <mxGeometry x="59.99999999999994" y="3.450000000000003" width="13.1" height="13.1" as="geometry"/>
        </mxCell>
        <mxCell id="yATNsBb3q5yBskkvt2-H-17" value="" style="ellipse;whiteSpace=wrap;html=1;aspect=fixed;fillColor=#fad9d5;strokeColor=#ae4132;" vertex="1" parent="yATNsBb3q5yBskkvt2-H-13">
          <mxGeometry x="35.30999999999989" y="3.450000000000003" width="13.1" height="13.1" as="geometry"/>
        </mxCell>
        <mxCell id="yATNsBb3q5yBskkvt2-H-18" value="&lt;font style=&quot;font-size: 16px&quot;&gt;Support Set&lt;/font&gt;" style="rounded=0;whiteSpace=wrap;html=1;dashed=1;fillColor=none;rotation=0;strokeColor=none;" vertex="1" parent="tNX9rCzWR_ukR634oyPF-81">
          <mxGeometry x="265.2" y="2.4478260869565176" width="118.4" height="44.02173913043478" as="geometry"/>
        </mxCell>
        <mxCell id="yATNsBb3q5yBskkvt2-H-138" value="&lt;font style=&quot;font-size: 16px&quot;&gt;Query Set&lt;/font&gt;" style="rounded=0;whiteSpace=wrap;html=1;dashed=1;fillColor=none;rotation=0;strokeColor=none;" vertex="1" parent="tNX9rCzWR_ukR634oyPF-81">
          <mxGeometry x="366.26" y="-0.002173913043492348" width="118.4" height="44.02173913043478" as="geometry"/>
        </mxCell>
        <mxCell id="yATNsBb3q5yBskkvt2-H-141" style="edgeStyle=orthogonalEdgeStyle;rounded=0;orthogonalLoop=1;jettySize=auto;html=1;exitX=0.5;exitY=1;exitDx=0;exitDy=0;entryX=0;entryY=0.5;entryDx=0;entryDy=0;" edge="1" parent="tNX9rCzWR_ukR634oyPF-81" source="yATNsBb3q5yBskkvt2-H-7" target="RDXlojw9-ZO4NyErcKgJ-2">
          <mxGeometry relative="1" as="geometry"/>
        </mxCell>
        <mxCell id="yATNsBb3q5yBskkvt2-H-142" style="edgeStyle=orthogonalEdgeStyle;rounded=0;orthogonalLoop=1;jettySize=auto;html=1;exitX=0.5;exitY=1;exitDx=0;exitDy=0;entryX=0;entryY=0.5;entryDx=0;entryDy=0;" edge="1" parent="tNX9rCzWR_ukR634oyPF-81" source="yATNsBb3q5yBskkvt2-H-17" target="RDXlojw9-ZO4NyErcKgJ-2">
          <mxGeometry relative="1" as="geometry"/>
        </mxCell>
        <mxCell id="tNX9rCzWR_ukR634oyPF-82" value="" style="group" parent="K2zouyV7AdBwr3XAkaIj-15" vertex="1" connectable="0">
          <mxGeometry x="256.53333333333336" y="298.5869565217391" width="177.6" height="48.91304347826087" as="geometry"/>
        </mxCell>
        <mxCell id="1g0KAj4QC7h5cuI9oxlS-82" value="" style="shape=trapezoid;perimeter=trapezoidPerimeter;whiteSpace=wrap;html=1;rotation=-450;fillColor=#dae8fc;strokeColor=#6c8ebf;" parent="tNX9rCzWR_ukR634oyPF-82" vertex="1">
          <mxGeometry width="177.6" height="48.91304347826087" as="geometry"/>
        </mxCell>
        <mxCell id="1g0KAj4QC7h5cuI9oxlS-83" value="" style="line;html=1;perimeter=backbonePerimeter;points=[];outlineConnect=0;strokeColor=#000000;verticalAlign=middle;rounded=1;fontSize=11;endArrow=none;strokeWidth=1;rotation=-270;" parent="tNX9rCzWR_ukR634oyPF-82" vertex="1">
          <mxGeometry x="19.73333333333333" y="19.565217391304344" width="138.13333333333333" height="9.782608695652172" as="geometry"/>
        </mxCell>
        <mxCell id="tNX9rCzWR_ukR634oyPF-84" style="rounded=0;orthogonalLoop=1;jettySize=auto;html=1;exitX=0.5;exitY=1;exitDx=0;exitDy=0;dashed=1;endArrow=none;endFill=0;dashPattern=1 2;" parent="K2zouyV7AdBwr3XAkaIj-15" source="1g0KAj4QC7h5cuI9oxlS-76" target="tNX9rCzWR_ukR634oyPF-9" edge="1">
          <mxGeometry relative="1" as="geometry">
            <mxPoint x="444" y="39.34782608695652" as="targetPoint"/>
          </mxGeometry>
        </mxCell>
        <mxCell id="tNX9rCzWR_ukR634oyPF-85" style="edgeStyle=none;rounded=0;orthogonalLoop=1;jettySize=auto;html=1;exitX=0.5;exitY=1;exitDx=0;exitDy=0;dashed=1;endArrow=none;endFill=0;dashPattern=1 2;" parent="K2zouyV7AdBwr3XAkaIj-15" source="1g0KAj4QC7h5cuI9oxlS-82" edge="1">
          <mxGeometry relative="1" as="geometry">
            <mxPoint x="453.8666666666667" y="42.28260869565217" as="targetPoint"/>
          </mxGeometry>
        </mxCell>
        <mxCell id="tNX9rCzWR_ukR634oyPF-86" style="edgeStyle=none;rounded=0;orthogonalLoop=1;jettySize=auto;html=1;exitX=0.5;exitY=1;exitDx=0;exitDy=0;entryX=0.5;entryY=1;entryDx=0;entryDy=0;dashed=1;endArrow=none;endFill=0;dashPattern=1 2;" parent="K2zouyV7AdBwr3XAkaIj-15" source="1g0KAj4QC7h5cuI9oxlS-76" target="tNX9rCzWR_ukR634oyPF-13" edge="1">
          <mxGeometry relative="1" as="geometry"/>
        </mxCell>
        <mxCell id="tNX9rCzWR_ukR634oyPF-87" style="edgeStyle=none;rounded=0;orthogonalLoop=1;jettySize=auto;html=1;exitX=0.5;exitY=1;exitDx=0;exitDy=0;dashed=1;endArrow=none;endFill=0;dashPattern=1 2;" parent="K2zouyV7AdBwr3XAkaIj-15" source="1g0KAj4QC7h5cuI9oxlS-82" edge="1">
          <mxGeometry relative="1" as="geometry">
            <mxPoint x="453.8666666666667" y="88.26086956521739" as="targetPoint"/>
          </mxGeometry>
        </mxCell>
        <mxCell id="tNX9rCzWR_ukR634oyPF-88" style="edgeStyle=none;rounded=0;orthogonalLoop=1;jettySize=auto;html=1;exitX=0.5;exitY=1;exitDx=0;exitDy=0;entryX=0.5;entryY=1;entryDx=0;entryDy=0;dashed=1;endArrow=none;endFill=0;dashPattern=1 2;" parent="K2zouyV7AdBwr3XAkaIj-15" source="1g0KAj4QC7h5cuI9oxlS-76" target="tNX9rCzWR_ukR634oyPF-12" edge="1">
          <mxGeometry relative="1" as="geometry"/>
        </mxCell>
        <mxCell id="tNX9rCzWR_ukR634oyPF-89" style="edgeStyle=none;rounded=0;orthogonalLoop=1;jettySize=auto;html=1;exitX=0.5;exitY=1;exitDx=0;exitDy=0;dashed=1;endArrow=none;endFill=0;dashPattern=1 2;" parent="K2zouyV7AdBwr3XAkaIj-15" source="1g0KAj4QC7h5cuI9oxlS-82" edge="1">
          <mxGeometry relative="1" as="geometry">
            <mxPoint x="453.8666666666667" y="146.95652173913044" as="targetPoint"/>
          </mxGeometry>
        </mxCell>
        <mxCell id="tNX9rCzWR_ukR634oyPF-90" style="edgeStyle=none;rounded=0;orthogonalLoop=1;jettySize=auto;html=1;exitX=0.5;exitY=1;exitDx=0;exitDy=0;entryX=0.64;entryY=0.917;entryDx=0;entryDy=0;entryPerimeter=0;dashed=1;endArrow=none;endFill=0;dashPattern=1 2;" parent="K2zouyV7AdBwr3XAkaIj-15" source="1g0KAj4QC7h5cuI9oxlS-76" target="tNX9rCzWR_ukR634oyPF-8" edge="1">
          <mxGeometry relative="1" as="geometry"/>
        </mxCell>
        <mxCell id="tNX9rCzWR_ukR634oyPF-91" style="edgeStyle=none;rounded=0;orthogonalLoop=1;jettySize=auto;html=1;exitX=0.5;exitY=1;exitDx=0;exitDy=0;entryX=0.5;entryY=1;entryDx=0;entryDy=0;dashed=1;endArrow=none;endFill=0;dashPattern=1 2;" parent="K2zouyV7AdBwr3XAkaIj-15" source="1g0KAj4QC7h5cuI9oxlS-82" target="tNX9rCzWR_ukR634oyPF-11" edge="1">
          <mxGeometry relative="1" as="geometry"/>
        </mxCell>
        <mxCell id="tNX9rCzWR_ukR634oyPF-92" style="edgeStyle=none;rounded=0;orthogonalLoop=1;jettySize=auto;html=1;exitX=0.5;exitY=1;exitDx=0;exitDy=0;entryX=0.603;entryY=0.977;entryDx=0;entryDy=0;entryPerimeter=0;dashed=1;endArrow=none;endFill=0;dashPattern=1 2;" parent="K2zouyV7AdBwr3XAkaIj-15" source="1g0KAj4QC7h5cuI9oxlS-82" target="tNX9rCzWR_ukR634oyPF-10" edge="1">
          <mxGeometry relative="1" as="geometry"/>
        </mxCell>
        <mxCell id="tNX9rCzWR_ukR634oyPF-93" style="edgeStyle=none;rounded=0;orthogonalLoop=1;jettySize=auto;html=1;exitX=0.5;exitY=1;exitDx=0;exitDy=0;dashed=1;endArrow=none;endFill=0;dashPattern=1 2;" parent="K2zouyV7AdBwr3XAkaIj-15" source="1g0KAj4QC7h5cuI9oxlS-76" edge="1">
          <mxGeometry relative="1" as="geometry">
            <mxPoint x="453.8666666666667" y="323.04347826086956" as="targetPoint"/>
          </mxGeometry>
        </mxCell>
        <mxCell id="RDXlojw9-ZO4NyErcKgJ-1" style="edgeStyle=orthogonalEdgeStyle;rounded=0;orthogonalLoop=1;jettySize=auto;html=1;exitX=0.5;exitY=0;exitDx=0;exitDy=0;entryX=0.5;entryY=0;entryDx=0;entryDy=0;" parent="K2zouyV7AdBwr3XAkaIj-15" source="1g0KAj4QC7h5cuI9oxlS-22" target="1g0KAj4QC7h5cuI9oxlS-82" edge="1">
          <mxGeometry relative="1" as="geometry"/>
        </mxCell>
        <mxCell id="tNX9rCzWR_ukR634oyPF-94" style="edgeStyle=none;rounded=0;orthogonalLoop=1;jettySize=auto;html=1;exitX=0.5;exitY=1;exitDx=0;exitDy=0;entryX=0.919;entryY=0.917;entryDx=0;entryDy=0;entryPerimeter=0;dashed=1;endArrow=none;endFill=0;dashPattern=1 2;" parent="K2zouyV7AdBwr3XAkaIj-15" source="1g0KAj4QC7h5cuI9oxlS-76" target="tNX9rCzWR_ukR634oyPF-8" edge="1">
          <mxGeometry relative="1" as="geometry"/>
        </mxCell>
        <mxCell id="tNX9rCzWR_ukR634oyPF-95" style="edgeStyle=none;rounded=0;orthogonalLoop=1;jettySize=auto;html=1;exitX=0.5;exitY=1;exitDx=0;exitDy=0;dashed=1;endArrow=none;endFill=0;dashPattern=1 2;" parent="K2zouyV7AdBwr3XAkaIj-15" source="1g0KAj4QC7h5cuI9oxlS-82" edge="1">
          <mxGeometry relative="1" as="geometry">
            <mxPoint x="453.8666666666667" y="381.7391304347826" as="targetPoint"/>
          </mxGeometry>
        </mxCell>
        <mxCell id="K2zouyV7AdBwr3XAkaIj-3" value="" style="rounded=0;whiteSpace=wrap;html=1;fillColor=none;dashed=1;" parent="K2zouyV7AdBwr3XAkaIj-15" vertex="1">
          <mxGeometry x="305.8666666666667" y="-48.69565217391305" width="78.93333333333334" height="489.1304347826087" as="geometry"/>
        </mxCell>
        <mxCell id="K2zouyV7AdBwr3XAkaIj-18" value="&lt;font style=&quot;font-size: 16px&quot;&gt;Training Data&lt;/font&gt;" style="rounded=0;whiteSpace=wrap;html=1;dashed=1;fillColor=none;rotation=90;strokeColor=none;" parent="K2zouyV7AdBwr3XAkaIj-15" vertex="1">
          <mxGeometry x="-26.64" y="174.34782608695653" width="118.4" height="44.02173913043478" as="geometry"/>
        </mxCell>
        <mxCell id="K2zouyV7AdBwr3XAkaIj-17" value="" style="rounded=0;whiteSpace=wrap;html=1;dashed=1;fillColor=none;" parent="K2zouyV7AdBwr3XAkaIj-15" vertex="1">
          <mxGeometry x="49.333333333333336" y="-48.69565217391305" width="108.53333333333333" height="489.1304347826087" as="geometry"/>
        </mxCell>
        <mxCell id="yATNsBb3q5yBskkvt2-H-139" value="" style="endArrow=none;dashed=1;html=1;" edge="1" parent="K2zouyV7AdBwr3XAkaIj-15">
          <mxGeometry width="50" height="50" relative="1" as="geometry">
            <mxPoint x="600" y="50" as="sourcePoint"/>
            <mxPoint x="650" as="targetPoint"/>
          </mxGeometry>
        </mxCell>
        <mxCell id="yATNsBb3q5yBskkvt2-H-140" value="" style="endArrow=none;dashed=1;html=1;entryX=0.544;entryY=1;entryDx=0;entryDy=0;entryPerimeter=0;" edge="1" parent="K2zouyV7AdBwr3XAkaIj-15" target="K2zouyV7AdBwr3XAkaIj-9">
          <mxGeometry width="50" height="50" relative="1" as="geometry">
            <mxPoint x="690" y="50" as="sourcePoint"/>
            <mxPoint x="650" y="10" as="targetPoint"/>
          </mxGeometry>
        </mxCell>
      </root>
    </mxGraphModel>
  </diagram>
  <diagram id="WVjvcv41zYPTsTp_JXkH" name="Page-2">
    &#xa;    &#xa;    &#xa;    
    <mxGraphModel dx="1408" dy="868" grid="1" gridSize="10" guides="1" tooltips="1" connect="1" arrows="1" fold="1" page="1" pageScale="1" pageWidth="827" pageHeight="1169" math="1" shadow="0">
      &#xa;      &#xa;      &#xa;      
      <root>
        &#xa;        &#xa;        &#xa;        
        <mxCell id="luPBucOMOKFil8FiSVLd-0"/>
        &#xa;        &#xa;        &#xa;        
        <mxCell id="luPBucOMOKFil8FiSVLd-1" parent="luPBucOMOKFil8FiSVLd-0"/>
        &#xa;        &#xa;        &#xa;        
        <mxCell id="luPBucOMOKFil8FiSVLd-2" style="edgeStyle=orthogonalEdgeStyle;rounded=0;orthogonalLoop=1;jettySize=auto;html=1;exitX=1;exitY=0.5;exitDx=0;exitDy=0;entryX=0;entryY=0.5;entryDx=0;entryDy=0;" parent="luPBucOMOKFil8FiSVLd-1" source="luPBucOMOKFil8FiSVLd-3" target="luPBucOMOKFil8FiSVLd-5" edge="1">
          &#xa;          &#xa;          &#xa;          
          <mxGeometry relative="1" as="geometry"/>
          &#xa;          &#xa;        &#xa;        
        </mxCell>
        &#xa;        &#xa;        &#xa;        
        <mxCell id="luPBucOMOKFil8FiSVLd-3" value="&lt;font style=&quot;font-size: 16px&quot;&gt;$$x$$&lt;/font&gt;" style="rounded=0;whiteSpace=wrap;html=1;fillColor=#ffe6cc;strokeColor=#d79b00;" parent="luPBucOMOKFil8FiSVLd-1" vertex="1">
          &#xa;          &#xa;          &#xa;          
          <mxGeometry x="60" y="240" width="80" height="60" as="geometry"/>
          &#xa;          &#xa;        &#xa;        
        </mxCell>
        &#xa;        &#xa;        &#xa;        
        <mxCell id="luPBucOMOKFil8FiSVLd-4" style="edgeStyle=orthogonalEdgeStyle;rounded=0;orthogonalLoop=1;jettySize=auto;html=1;exitX=1;exitY=0.5;exitDx=0;exitDy=0;entryX=0;entryY=0.5;entryDx=0;entryDy=0;" parent="luPBucOMOKFil8FiSVLd-1" source="luPBucOMOKFil8FiSVLd-5" target="luPBucOMOKFil8FiSVLd-7" edge="1">
          &#xa;          &#xa;          &#xa;          
          <mxGeometry relative="1" as="geometry"/>
          &#xa;          &#xa;        &#xa;        
        </mxCell>
        &#xa;        &#xa;        &#xa;        
        <mxCell id="luPBucOMOKFil8FiSVLd-5" value="&lt;font style=&quot;font-size: 16px&quot;&gt;$$q_{\theta}(z | x)$$&lt;/font&gt;" style="rounded=0;whiteSpace=wrap;html=1;fillColor=#fff2cc;strokeColor=#d6b656;" parent="luPBucOMOKFil8FiSVLd-1" vertex="1">
          &#xa;          &#xa;          &#xa;          
          <mxGeometry x="180" y="240" width="120" height="60" as="geometry"/>
          &#xa;          &#xa;        &#xa;        
        </mxCell>
        &#xa;        &#xa;        &#xa;        
        <mxCell id="luPBucOMOKFil8FiSVLd-6" style="edgeStyle=orthogonalEdgeStyle;rounded=0;orthogonalLoop=1;jettySize=auto;html=1;exitX=1;exitY=0.5;exitDx=0;exitDy=0;entryX=0;entryY=0.5;entryDx=0;entryDy=0;" parent="luPBucOMOKFil8FiSVLd-1" source="luPBucOMOKFil8FiSVLd-7" target="luPBucOMOKFil8FiSVLd-9" edge="1">
          &#xa;          &#xa;          &#xa;          
          <mxGeometry relative="1" as="geometry"/>
          &#xa;          &#xa;        &#xa;        
        </mxCell>
        &#xa;        &#xa;        &#xa;        
        <mxCell id="luPBucOMOKFil8FiSVLd-7" value="&lt;font style=&quot;font-size: 16px&quot;&gt;$$z$$&lt;/font&gt;" style="rounded=0;whiteSpace=wrap;html=1;fillColor=#1ba1e2;strokeColor=#006EAF;fontColor=#ffffff;" parent="luPBucOMOKFil8FiSVLd-1" vertex="1">
          &#xa;          &#xa;          &#xa;          
          <mxGeometry x="340" y="240" width="120" height="60" as="geometry"/>
          &#xa;          &#xa;        &#xa;        
        </mxCell>
        &#xa;        &#xa;        &#xa;        
        <mxCell id="luPBucOMOKFil8FiSVLd-8" style="edgeStyle=orthogonalEdgeStyle;rounded=0;orthogonalLoop=1;jettySize=auto;html=1;exitX=1;exitY=0.5;exitDx=0;exitDy=0;entryX=0;entryY=0.5;entryDx=0;entryDy=0;" parent="luPBucOMOKFil8FiSVLd-1" source="luPBucOMOKFil8FiSVLd-9" target="luPBucOMOKFil8FiSVLd-11" edge="1">
          &#xa;          &#xa;          &#xa;          
          <mxGeometry relative="1" as="geometry"/>
          &#xa;          &#xa;        &#xa;        
        </mxCell>
        &#xa;        &#xa;        &#xa;        
        <mxCell id="luPBucOMOKFil8FiSVLd-9" value="&lt;font style=&quot;font-size: 16px&quot;&gt;$$p_{\phi}(x | z)$$&lt;/font&gt;" style="rounded=0;whiteSpace=wrap;html=1;fillColor=#f8cecc;strokeColor=#b85450;" parent="luPBucOMOKFil8FiSVLd-1" vertex="1">
          &#xa;          &#xa;          &#xa;          
          <mxGeometry x="500" y="240" width="120" height="60" as="geometry"/>
          &#xa;          &#xa;        &#xa;        
        </mxCell>
        &#xa;        &#xa;        &#xa;        
        <mxCell id="luPBucOMOKFil8FiSVLd-10" style="edgeStyle=orthogonalEdgeStyle;rounded=0;orthogonalLoop=1;jettySize=auto;html=1;exitX=0.5;exitY=1;exitDx=0;exitDy=0;entryX=1;entryY=0.5;entryDx=0;entryDy=0;strokeColor=#000000;jumpStyle=none;endArrow=none;endFill=0;" parent="luPBucOMOKFil8FiSVLd-1" source="luPBucOMOKFil8FiSVLd-11" target="luPBucOMOKFil8FiSVLd-15" edge="1">
          &#xa;          &#xa;          &#xa;          
          <mxGeometry relative="1" as="geometry"/>
          &#xa;          &#xa;        &#xa;        
        </mxCell>
        &#xa;        &#xa;        &#xa;        
        <mxCell id="luPBucOMOKFil8FiSVLd-11" value="&lt;font style=&quot;font-size: 16px&quot;&gt;$$\tilde{x}$$&lt;/font&gt;" style="rounded=0;whiteSpace=wrap;html=1;fillColor=#e1d5e7;strokeColor=#9673a6;" parent="luPBucOMOKFil8FiSVLd-1" vertex="1">
          &#xa;          &#xa;          &#xa;          
          <mxGeometry x="660" y="240" width="80" height="60" as="geometry"/>
          &#xa;          &#xa;        &#xa;        
        </mxCell>
        &#xa;        &#xa;        &#xa;        
        <mxCell id="luPBucOMOKFil8FiSVLd-12" style="edgeStyle=orthogonalEdgeStyle;rounded=0;orthogonalLoop=1;jettySize=auto;html=1;exitX=0.5;exitY=1;exitDx=0;exitDy=0;entryX=0.5;entryY=0;entryDx=0;entryDy=0;" parent="luPBucOMOKFil8FiSVLd-1" source="luPBucOMOKFil8FiSVLd-13" target="luPBucOMOKFil8FiSVLd-7" edge="1">
          &#xa;          &#xa;          &#xa;          
          <mxGeometry relative="1" as="geometry"/>
          &#xa;          &#xa;        &#xa;        
        </mxCell>
        &#xa;        &#xa;        &#xa;        
        <mxCell id="luPBucOMOKFil8FiSVLd-13" value="&lt;font style=&quot;font-size: 16px&quot;&gt;Gaussian Noise&lt;/font&gt;" style="ellipse;whiteSpace=wrap;html=1;" parent="luPBucOMOKFil8FiSVLd-1" vertex="1">
          &#xa;          &#xa;          &#xa;          
          <mxGeometry x="340" y="120" width="120" height="80" as="geometry"/>
          &#xa;          &#xa;        &#xa;        
        </mxCell>
        &#xa;        &#xa;        &#xa;        
        <mxCell id="luPBucOMOKFil8FiSVLd-14" style="edgeStyle=orthogonalEdgeStyle;rounded=0;orthogonalLoop=1;jettySize=auto;html=1;exitX=0;exitY=0.5;exitDx=0;exitDy=0;entryX=0.5;entryY=1;entryDx=0;entryDy=0;" parent="luPBucOMOKFil8FiSVLd-1" source="luPBucOMOKFil8FiSVLd-15" target="luPBucOMOKFil8FiSVLd-3" edge="1">
          &#xa;          &#xa;          &#xa;          
          <mxGeometry relative="1" as="geometry"/>
          &#xa;          &#xa;        &#xa;        
        </mxCell>
        &#xa;        &#xa;        &#xa;        
        <mxCell id="luPBucOMOKFil8FiSVLd-15" value="&lt;font style=&quot;font-size: 16px&quot;&gt;Similarity&lt;/font&gt;" style="rounded=0;whiteSpace=wrap;html=1;" parent="luPBucOMOKFil8FiSVLd-1" vertex="1">
          &#xa;          &#xa;          &#xa;          
          <mxGeometry x="340" y="360" width="120" height="40" as="geometry"/>
          &#xa;          &#xa;        &#xa;        
        </mxCell>
        &#xa;        &#xa;        &#xa;        
        <mxCell id="luPBucOMOKFil8FiSVLd-16" value="&lt;font style=&quot;font-size: 16px&quot;&gt;encoder&lt;/font&gt;" style="rounded=0;whiteSpace=wrap;html=1;strokeColor=none;" parent="luPBucOMOKFil8FiSVLd-1" vertex="1">
          &#xa;          &#xa;          &#xa;          
          <mxGeometry x="180" y="300" width="120" height="40" as="geometry"/>
          &#xa;          &#xa;        &#xa;        
        </mxCell>
        &#xa;        &#xa;        &#xa;        
        <mxCell id="luPBucOMOKFil8FiSVLd-17" value="&lt;font style=&quot;font-size: 16px&quot;&gt;code&lt;/font&gt;" style="rounded=0;whiteSpace=wrap;html=1;strokeColor=none;" parent="luPBucOMOKFil8FiSVLd-1" vertex="1">
          &#xa;          &#xa;          &#xa;          
          <mxGeometry x="340" y="300" width="120" height="40" as="geometry"/>
          &#xa;          &#xa;        &#xa;        
        </mxCell>
        &#xa;        &#xa;        &#xa;        
        <mxCell id="luPBucOMOKFil8FiSVLd-18" value="&lt;font style=&quot;font-size: 16px&quot;&gt;dncoder&lt;/font&gt;" style="rounded=0;whiteSpace=wrap;html=1;strokeColor=none;" parent="luPBucOMOKFil8FiSVLd-1" vertex="1">
          &#xa;          &#xa;          &#xa;          
          <mxGeometry x="500" y="300" width="120" height="40" as="geometry"/>
          &#xa;          &#xa;        &#xa;        
        </mxCell>
        &#xa;        &#xa;      &#xa;      
      </root>
      &#xa;      &#xa;    &#xa;    
    </mxGraphModel>
    &#xa;    &#xa;  &#xa;  
  </diagram>
  <diagram id="cXnbS4Ru6w57U7JJpNfo" name="Grad-CAM">
    &#xa;    &#xa;    &#xa;    
    <mxGraphModel dx="1408" dy="868" grid="1" gridSize="10" guides="1" tooltips="1" connect="1" arrows="1" fold="1" page="1" pageScale="1" pageWidth="827" pageHeight="1169" math="1" shadow="0">
      &#xa;      &#xa;      &#xa;      
      <root>
        &#xa;        &#xa;        &#xa;        
        <mxCell id="rShqJIuRtcd7H9Vx4vGm-0"/>
        &#xa;        &#xa;        &#xa;        
        <mxCell id="rShqJIuRtcd7H9Vx4vGm-1" parent="rShqJIuRtcd7H9Vx4vGm-0"/>
        &#xa;        &#xa;        &#xa;        
        <mxCell id="rShqJIuRtcd7H9Vx4vGm-90" value="" style="group;container=1;strokeColor=none;" parent="rShqJIuRtcd7H9Vx4vGm-1" vertex="1" connectable="0">
          &#xa;          &#xa;          &#xa;          
          <mxGeometry x="90" y="150" width="665" height="257" as="geometry"/>
          &#xa;          &#xa;        &#xa;        
        </mxCell>
        &#xa;        &#xa;        &#xa;        
        <mxCell id="rShqJIuRtcd7H9Vx4vGm-88" value="" style="group" parent="rShqJIuRtcd7H9Vx4vGm-90" vertex="1" connectable="0">
          &#xa;          &#xa;          &#xa;          
          <mxGeometry width="665" height="257" as="geometry"/>
          &#xa;          &#xa;        &#xa;        
        </mxCell>
        &#xa;        &#xa;        &#xa;        
        <mxCell id="rShqJIuRtcd7H9Vx4vGm-87" value="" style="group" parent="rShqJIuRtcd7H9Vx4vGm-88" vertex="1" connectable="0">
          &#xa;          &#xa;          &#xa;          
          <mxGeometry width="665" height="257" as="geometry"/>
          &#xa;          &#xa;        &#xa;        
        </mxCell>
        &#xa;        &#xa;        &#xa;        
        <mxCell id="rShqJIuRtcd7H9Vx4vGm-66" value="" style="group" parent="rShqJIuRtcd7H9Vx4vGm-87" vertex="1" connectable="0">
          &#xa;          &#xa;          &#xa;          
          <mxGeometry width="665" height="257" as="geometry"/>
          &#xa;          &#xa;        &#xa;        
        </mxCell>
        &#xa;        &#xa;        &#xa;        
        <mxCell id="rShqJIuRtcd7H9Vx4vGm-65" value="" style="group;container=1;" parent="rShqJIuRtcd7H9Vx4vGm-66" vertex="1" connectable="0">
          &#xa;          &#xa;          &#xa;          
          <mxGeometry width="665" height="257" as="geometry"/>
          &#xa;          &#xa;        &#xa;        
        </mxCell>
        &#xa;        &#xa;        &#xa;        
        <mxCell id="rShqJIuRtcd7H9Vx4vGm-8" style="edgeStyle=orthogonalEdgeStyle;rounded=0;orthogonalLoop=1;jettySize=auto;html=1;exitX=1;exitY=0.5;exitDx=0;exitDy=0;" parent="rShqJIuRtcd7H9Vx4vGm-65" source="rShqJIuRtcd7H9Vx4vGm-3" edge="1">
          &#xa;          &#xa;          &#xa;          
          <mxGeometry relative="1" as="geometry">
            &#xa;            &#xa;            &#xa;            
            <mxPoint x="250" y="127" as="targetPoint"/>
            &#xa;            &#xa;          &#xa;          
          </mxGeometry>
          &#xa;          &#xa;        &#xa;        
        </mxCell>
        &#xa;        &#xa;        &#xa;        
        <mxCell id="rShqJIuRtcd7H9Vx4vGm-3" value="&lt;font style=&quot;font-size: 16px&quot;&gt;CNN&lt;/font&gt;" style="rounded=0;whiteSpace=wrap;html=1;fillColor=#d5e8d4;strokeColor=#82b366;" parent="rShqJIuRtcd7H9Vx4vGm-65" vertex="1">
          &#xa;          &#xa;          &#xa;          
          <mxGeometry x="100" y="97" width="120" height="60" as="geometry"/>
          &#xa;          &#xa;        &#xa;        
        </mxCell>
        &#xa;        &#xa;        &#xa;        
        <mxCell id="rShqJIuRtcd7H9Vx4vGm-7" value="" style="group" parent="rShqJIuRtcd7H9Vx4vGm-65" vertex="1" connectable="0">
          &#xa;          &#xa;          &#xa;          
          <mxGeometry x="250" y="87" width="90" height="80" as="geometry"/>
          &#xa;          &#xa;        &#xa;        
        </mxCell>
        &#xa;        &#xa;        &#xa;        
        <mxCell id="rShqJIuRtcd7H9Vx4vGm-4" value="" style="shape=cube;whiteSpace=wrap;html=1;boundedLbl=1;backgroundOutline=1;darkOpacity=0.05;darkOpacity2=0.1;rotation=0;fillColor=#ffe6cc;strokeColor=#d79b00;" parent="rShqJIuRtcd7H9Vx4vGm-7" vertex="1">
          &#xa;          &#xa;          &#xa;          
          <mxGeometry width="30" height="80" as="geometry"/>
          &#xa;          &#xa;        &#xa;        
        </mxCell>
        &#xa;        &#xa;        &#xa;        
        <mxCell id="rShqJIuRtcd7H9Vx4vGm-5" value="" style="shape=cube;whiteSpace=wrap;html=1;boundedLbl=1;backgroundOutline=1;darkOpacity=0.05;darkOpacity2=0.1;rotation=0;fillColor=#f8cecc;strokeColor=#b85450;" parent="rShqJIuRtcd7H9Vx4vGm-7" vertex="1">
          &#xa;          &#xa;          &#xa;          
          <mxGeometry x="30" width="30" height="80" as="geometry"/>
          &#xa;          &#xa;        &#xa;        
        </mxCell>
        &#xa;        &#xa;        &#xa;        
        <mxCell id="rShqJIuRtcd7H9Vx4vGm-6" value="" style="shape=cube;whiteSpace=wrap;html=1;boundedLbl=1;backgroundOutline=1;darkOpacity=0.05;darkOpacity2=0.1;rotation=0;fillColor=#e1d5e7;strokeColor=#9673a6;" parent="rShqJIuRtcd7H9Vx4vGm-7" vertex="1">
          &#xa;          &#xa;          &#xa;          
          <mxGeometry x="60" width="30" height="80" as="geometry"/>
          &#xa;          &#xa;        &#xa;        
        </mxCell>
        &#xa;        &#xa;        &#xa;        
        <mxCell id="rShqJIuRtcd7H9Vx4vGm-24" value="" style="group" parent="rShqJIuRtcd7H9Vx4vGm-65" vertex="1" connectable="0">
          &#xa;          &#xa;          &#xa;          
          <mxGeometry x="230" y="227" width="150" height="30" as="geometry"/>
          &#xa;          &#xa;        &#xa;        
        </mxCell>
        &#xa;        &#xa;        &#xa;        
        <mxCell id="rShqJIuRtcd7H9Vx4vGm-16" value="&lt;font style=&quot;font-size: 13px&quot;&gt;$$\omega_{1}^c$$&lt;/font&gt;" style="rounded=0;whiteSpace=wrap;html=1;imageWidth=24;direction=east;flipH=1;flipV=0;" parent="rShqJIuRtcd7H9Vx4vGm-24" vertex="1">
          &#xa;          &#xa;          &#xa;          
          <mxGeometry width="30" height="30" as="geometry"/>
          &#xa;          &#xa;        &#xa;        
        </mxCell>
        &#xa;        &#xa;        &#xa;        
        <mxCell id="rShqJIuRtcd7H9Vx4vGm-17" value="&lt;span style=&quot;white-space: normal&quot;&gt;&lt;font style=&quot;font-size: 13px&quot;&gt;$$\omega_{2}^c$$&lt;/font&gt;&lt;/span&gt;" style="rounded=0;whiteSpace=wrap;html=1;imageWidth=24;direction=east;flipH=1;flipV=0;" parent="rShqJIuRtcd7H9Vx4vGm-24" vertex="1">
          &#xa;          &#xa;          &#xa;          
          <mxGeometry x="30" width="30" height="30" as="geometry"/>
          &#xa;          &#xa;        &#xa;        
        </mxCell>
        &#xa;        &#xa;        &#xa;        
        <mxCell id="rShqJIuRtcd7H9Vx4vGm-18" value="$$\dots$$" style="rounded=0;whiteSpace=wrap;html=1;imageWidth=24;direction=east;flipH=1;flipV=0;" parent="rShqJIuRtcd7H9Vx4vGm-24" vertex="1">
          &#xa;          &#xa;          &#xa;          
          <mxGeometry x="60" width="30" height="30" as="geometry"/>
          &#xa;          &#xa;        &#xa;        
        </mxCell>
        &#xa;        &#xa;        &#xa;        
        <mxCell id="rShqJIuRtcd7H9Vx4vGm-19" value="&lt;font style=&quot;font-size: 13px&quot;&gt;$$\omega_{n-1}^{c}$$&lt;/font&gt;" style="rounded=0;whiteSpace=wrap;html=1;imageWidth=24;direction=east;flipH=1;flipV=0;fontSize=5;" parent="rShqJIuRtcd7H9Vx4vGm-24" vertex="1">
          &#xa;          &#xa;          &#xa;          
          <mxGeometry x="90" width="30" height="30" as="geometry"/>
          &#xa;          &#xa;        &#xa;        
        </mxCell>
        &#xa;        &#xa;        &#xa;        
        <mxCell id="rShqJIuRtcd7H9Vx4vGm-20" value="&lt;font style=&quot;font-size: 13px&quot;&gt;$$\omega_{n}^{c}$$&lt;/font&gt;" style="rounded=0;whiteSpace=wrap;html=1;imageWidth=24;direction=east;flipH=1;flipV=0;" parent="rShqJIuRtcd7H9Vx4vGm-24" vertex="1">
          &#xa;          &#xa;          &#xa;          
          <mxGeometry x="120" width="30" height="30" as="geometry"/>
          &#xa;          &#xa;        &#xa;        
        </mxCell>
        &#xa;        &#xa;        &#xa;        
        <mxCell id="rShqJIuRtcd7H9Vx4vGm-25" value="" style="endArrow=none;dashed=1;html=1;entryX=0;entryY=0;entryDx=20;entryDy=80;entryPerimeter=0;exitX=1;exitY=0;exitDx=0;exitDy=0;exitPerimeter=0;" parent="rShqJIuRtcd7H9Vx4vGm-65" source="rShqJIuRtcd7H9Vx4vGm-16" target="rShqJIuRtcd7H9Vx4vGm-4" edge="1">
          &#xa;          &#xa;          &#xa;          
          <mxGeometry width="50" height="50" relative="1" as="geometry">
            &#xa;            &#xa;            &#xa;            
            <mxPoint x="40" y="317" as="sourcePoint"/>
            &#xa;            &#xa;            &#xa;            
            <mxPoint x="90" y="267" as="targetPoint"/>
            &#xa;            &#xa;          &#xa;          
          </mxGeometry>
          &#xa;          &#xa;        &#xa;        
        </mxCell>
        &#xa;        &#xa;        &#xa;        
        <mxCell id="rShqJIuRtcd7H9Vx4vGm-26" value="" style="endArrow=none;dashed=1;html=1;entryX=1;entryY=1;entryDx=0;entryDy=0;entryPerimeter=0;exitX=0;exitY=0.033;exitDx=0;exitDy=0;exitPerimeter=0;" parent="rShqJIuRtcd7H9Vx4vGm-65" source="rShqJIuRtcd7H9Vx4vGm-20" target="rShqJIuRtcd7H9Vx4vGm-6" edge="1">
          &#xa;          &#xa;          &#xa;          
          <mxGeometry width="50" height="50" relative="1" as="geometry">
            &#xa;            &#xa;            &#xa;            
            <mxPoint x="40" y="317" as="sourcePoint"/>
            &#xa;            &#xa;            &#xa;            
            <mxPoint x="90" y="267" as="targetPoint"/>
            &#xa;            &#xa;          &#xa;          
          </mxGeometry>
          &#xa;          &#xa;        &#xa;        
        </mxCell>
        &#xa;        &#xa;        &#xa;        
        <mxCell id="rShqJIuRtcd7H9Vx4vGm-27" value="" style="endArrow=none;dashed=1;html=1;entryX=0.467;entryY=1.013;entryDx=0;entryDy=0;entryPerimeter=0;exitX=0.25;exitY=0;exitDx=0;exitDy=0;" parent="rShqJIuRtcd7H9Vx4vGm-65" source="rShqJIuRtcd7H9Vx4vGm-17" target="rShqJIuRtcd7H9Vx4vGm-5" edge="1">
          &#xa;          &#xa;          &#xa;          
          <mxGeometry width="50" height="50" relative="1" as="geometry">
            &#xa;            &#xa;            &#xa;            
            <mxPoint x="40" y="327" as="sourcePoint"/>
            &#xa;            &#xa;            &#xa;            
            <mxPoint x="90" y="277" as="targetPoint"/>
            &#xa;            &#xa;          &#xa;          
          </mxGeometry>
          &#xa;          &#xa;        &#xa;        
        </mxCell>
        &#xa;        &#xa;        &#xa;        
        <mxCell id="rShqJIuRtcd7H9Vx4vGm-28" value="" style="endArrow=none;dashed=1;html=1;exitX=0.5;exitY=0;exitDx=0;exitDy=0;" parent="rShqJIuRtcd7H9Vx4vGm-65" source="rShqJIuRtcd7H9Vx4vGm-19" edge="1">
          &#xa;          &#xa;          &#xa;          
          <mxGeometry width="50" height="50" relative="1" as="geometry">
            &#xa;            &#xa;            &#xa;            
            <mxPoint x="40" y="327" as="sourcePoint"/>
            &#xa;            &#xa;            &#xa;            
            <mxPoint x="310" y="167" as="targetPoint"/>
            &#xa;            &#xa;          &#xa;          
          </mxGeometry>
          &#xa;          &#xa;        &#xa;        
        </mxCell>
        &#xa;        &#xa;        &#xa;        
        <mxCell id="rShqJIuRtcd7H9Vx4vGm-31" value="" style="whiteSpace=wrap;html=1;shape=mxgraph.basic.isocube;isoAngle=15;rounded=0;fontSize=1;rotation=0;fillColor=#f5f5f5;strokeColor=#666666;fontColor=#333333;" parent="rShqJIuRtcd7H9Vx4vGm-65" vertex="1">
          &#xa;          &#xa;          &#xa;          
          <mxGeometry x="395" y="64.5" width="30" height="125" as="geometry"/>
          &#xa;          &#xa;        &#xa;        
        </mxCell>
        &#xa;        &#xa;        &#xa;        
        <mxCell id="rShqJIuRtcd7H9Vx4vGm-33" style="edgeStyle=orthogonalEdgeStyle;rounded=0;orthogonalLoop=1;jettySize=auto;html=1;entryX=0;entryY=0.5;entryDx=0;entryDy=0;entryPerimeter=0;fontSize=1;" parent="rShqJIuRtcd7H9Vx4vGm-65" target="rShqJIuRtcd7H9Vx4vGm-31" edge="1">
          &#xa;          &#xa;          &#xa;          
          <mxGeometry relative="1" as="geometry">
            &#xa;            &#xa;            &#xa;            
            <mxPoint x="340" y="127" as="sourcePoint"/>
            &#xa;            &#xa;            &#xa;            
            <Array as="points">
              &#xa;              &#xa;              &#xa;              
              <mxPoint x="340" y="127"/>
              &#xa;              &#xa;            &#xa;            
            </Array>
            &#xa;            &#xa;          &#xa;          
          </mxGeometry>
          &#xa;          &#xa;        &#xa;        
        </mxCell>
        &#xa;        &#xa;        &#xa;        
        <mxCell id="rShqJIuRtcd7H9Vx4vGm-55" style="edgeStyle=orthogonalEdgeStyle;rounded=0;orthogonalLoop=1;jettySize=auto;html=1;exitX=1;exitY=0.5;exitDx=0;exitDy=0;fontSize=1;" parent="rShqJIuRtcd7H9Vx4vGm-65" source="rShqJIuRtcd7H9Vx4vGm-54" target="rShqJIuRtcd7H9Vx4vGm-3" edge="1">
          &#xa;          &#xa;          &#xa;          
          <mxGeometry relative="1" as="geometry"/>
          &#xa;          &#xa;        &#xa;        
        </mxCell>
        &#xa;        &#xa;        &#xa;        
        <mxCell id="rShqJIuRtcd7H9Vx4vGm-72" style="edgeStyle=orthogonalEdgeStyle;rounded=0;orthogonalLoop=1;jettySize=auto;html=1;exitX=0.5;exitY=1;exitDx=0;exitDy=0;entryX=0.5;entryY=1;entryDx=0;entryDy=0;fontSize=1;" parent="rShqJIuRtcd7H9Vx4vGm-65" source="rShqJIuRtcd7H9Vx4vGm-54" target="rShqJIuRtcd7H9Vx4vGm-43" edge="1">
          &#xa;          &#xa;          &#xa;          
          <mxGeometry relative="1" as="geometry">
            &#xa;            &#xa;            &#xa;            
            <Array as="points">
              &#xa;              &#xa;              &#xa;              
              <mxPoint x="35" y="290"/>
              &#xa;              &#xa;              &#xa;              
              <mxPoint x="485" y="290"/>
              &#xa;              &#xa;            &#xa;            
            </Array>
            &#xa;            &#xa;          &#xa;          
          </mxGeometry>
          &#xa;          &#xa;        &#xa;        
        </mxCell>
        &#xa;        &#xa;        &#xa;        
        <mxCell id="rShqJIuRtcd7H9Vx4vGm-54" value="&lt;font style=&quot;font-size: 16px&quot;&gt;Data&lt;/font&gt;" style="rounded=0;whiteSpace=wrap;html=1;fontSize=1;fillColor=#e1d5e7;strokeColor=#9673a6;" parent="rShqJIuRtcd7H9Vx4vGm-65" vertex="1">
          &#xa;          &#xa;          &#xa;          
          <mxGeometry y="97" width="70" height="60" as="geometry"/>
          &#xa;          &#xa;        &#xa;        
        </mxCell>
        &#xa;        &#xa;        &#xa;        
        <mxCell id="rShqJIuRtcd7H9Vx4vGm-56" value="" style="group" parent="rShqJIuRtcd7H9Vx4vGm-65" vertex="1" connectable="0">
          &#xa;          &#xa;          &#xa;          
          <mxGeometry x="470" width="95" height="238" as="geometry"/>
          &#xa;          &#xa;        &#xa;        
        </mxCell>
        &#xa;        &#xa;        &#xa;        
        <mxCell id="rShqJIuRtcd7H9Vx4vGm-47" value="" style="group;flipV=0;flipH=1;" parent="rShqJIuRtcd7H9Vx4vGm-56" vertex="1" connectable="0">
          &#xa;          &#xa;          &#xa;          
          <mxGeometry width="30" height="240" as="geometry"/>
          &#xa;          &#xa;        &#xa;        
        </mxCell>
        &#xa;        &#xa;        &#xa;        
        <mxCell id="rShqJIuRtcd7H9Vx4vGm-36" value="" style="rounded=0;whiteSpace=wrap;html=1;fontSize=1;" parent="rShqJIuRtcd7H9Vx4vGm-47" vertex="1">
          &#xa;          &#xa;          &#xa;          
          <mxGeometry y="30" width="30" height="30" as="geometry"/>
          &#xa;          &#xa;        &#xa;        
        </mxCell>
        &#xa;        &#xa;        &#xa;        
        <mxCell id="rShqJIuRtcd7H9Vx4vGm-37" value="" style="rounded=0;whiteSpace=wrap;html=1;fontSize=1;" parent="rShqJIuRtcd7H9Vx4vGm-47" vertex="1">
          &#xa;          &#xa;          &#xa;          
          <mxGeometry y="60" width="30" height="30" as="geometry"/>
          &#xa;          &#xa;        &#xa;        
        </mxCell>
        &#xa;        &#xa;        &#xa;        
        <mxCell id="rShqJIuRtcd7H9Vx4vGm-38" value="" style="rounded=0;whiteSpace=wrap;html=1;fontSize=1;" parent="rShqJIuRtcd7H9Vx4vGm-47" vertex="1">
          &#xa;          &#xa;          &#xa;          
          <mxGeometry y="150" width="30" height="30" as="geometry"/>
          &#xa;          &#xa;        &#xa;        
        </mxCell>
        &#xa;        &#xa;        &#xa;        
        <mxCell id="rShqJIuRtcd7H9Vx4vGm-39" value="" style="rounded=0;whiteSpace=wrap;html=1;fontSize=1;" parent="rShqJIuRtcd7H9Vx4vGm-47" vertex="1">
          &#xa;          &#xa;          &#xa;          
          <mxGeometry y="120" width="30" height="30" as="geometry"/>
          &#xa;          &#xa;        &#xa;        
        </mxCell>
        &#xa;        &#xa;        &#xa;        
        <mxCell id="rShqJIuRtcd7H9Vx4vGm-40" value="" style="rounded=0;whiteSpace=wrap;html=1;fontSize=1;" parent="rShqJIuRtcd7H9Vx4vGm-47" vertex="1">
          &#xa;          &#xa;          &#xa;          
          <mxGeometry y="90" width="30" height="30" as="geometry"/>
          &#xa;          &#xa;        &#xa;        
        </mxCell>
        &#xa;        &#xa;        &#xa;        
        <mxCell id="rShqJIuRtcd7H9Vx4vGm-42" value="" style="rounded=0;whiteSpace=wrap;html=1;fontSize=1;" parent="rShqJIuRtcd7H9Vx4vGm-47" vertex="1">
          &#xa;          &#xa;          &#xa;          
          <mxGeometry width="30" height="30" as="geometry"/>
          &#xa;          &#xa;        &#xa;        
        </mxCell>
        &#xa;        &#xa;        &#xa;        
        <mxCell id="rShqJIuRtcd7H9Vx4vGm-43" value="" style="rounded=0;whiteSpace=wrap;html=1;fontSize=1;" parent="rShqJIuRtcd7H9Vx4vGm-47" vertex="1">
          &#xa;          &#xa;          &#xa;          
          <mxGeometry y="210" width="30" height="30" as="geometry"/>
          &#xa;          &#xa;        &#xa;        
        </mxCell>
        &#xa;        &#xa;        &#xa;        
        <mxCell id="rShqJIuRtcd7H9Vx4vGm-44" value="&lt;font style=&quot;font-size: 16px&quot;&gt;c&lt;/font&gt;" style="rounded=0;whiteSpace=wrap;html=1;fontSize=1;fillColor=#fff2cc;strokeColor=#d6b656;" parent="rShqJIuRtcd7H9Vx4vGm-47" vertex="1">
          &#xa;          &#xa;          &#xa;          
          <mxGeometry y="180" width="30" height="30" as="geometry"/>
          &#xa;          &#xa;        &#xa;        
        </mxCell>
        &#xa;        &#xa;        &#xa;        
        <mxCell id="rShqJIuRtcd7H9Vx4vGm-49" value="Target" style="text;html=1;resizable=0;points=[];autosize=1;align=left;verticalAlign=top;spacingTop=-4;fontSize=1;" parent="rShqJIuRtcd7H9Vx4vGm-56" vertex="1">
          &#xa;          &#xa;          &#xa;          
          <mxGeometry x="40" y="190" width="50" as="geometry"/>
          &#xa;          &#xa;        &#xa;        
        </mxCell>
        &#xa;        &#xa;        &#xa;        
        <mxCell id="rShqJIuRtcd7H9Vx4vGm-68" value="&lt;font style=&quot;font-size: 16px&quot;&gt;Heat-map&lt;/font&gt;" style="rounded=0;whiteSpace=wrap;html=1;fontSize=1;fillColor=#dae8fc;strokeColor=#6c8ebf;" parent="rShqJIuRtcd7H9Vx4vGm-65" vertex="1">
          &#xa;          &#xa;          &#xa;          
          <mxGeometry x="560" y="89" width="70" height="60" as="geometry"/>
          &#xa;          &#xa;        &#xa;        
        </mxCell>
        &#xa;        &#xa;        &#xa;        
        <mxCell id="rShqJIuRtcd7H9Vx4vGm-85" style="edgeStyle=none;rounded=0;orthogonalLoop=1;jettySize=auto;html=1;exitX=0.75;exitY=1;exitDx=0;exitDy=0;entryX=0;entryY=0.5;entryDx=0;entryDy=0;fontSize=1;" parent="rShqJIuRtcd7H9Vx4vGm-65" source="rShqJIuRtcd7H9Vx4vGm-40" target="rShqJIuRtcd7H9Vx4vGm-68" edge="1">
          &#xa;          &#xa;          &#xa;          
          <mxGeometry relative="1" as="geometry">
            &#xa;            &#xa;            &#xa;            
            <mxPoint x="565" y="120" as="sourcePoint"/>
            &#xa;            &#xa;          &#xa;          
          </mxGeometry>
          &#xa;          &#xa;        &#xa;        
        </mxCell>
        &#xa;        &#xa;        &#xa;        
        <mxCell id="rShqJIuRtcd7H9Vx4vGm-92" value="&lt;span style=&quot;text-align: left&quot;&gt;&lt;font style=&quot;font-size: 12px&quot;&gt;Feature Map&lt;/font&gt;&lt;/span&gt;" style="rounded=0;whiteSpace=wrap;html=1;fontSize=1;strokeColor=none;" parent="rShqJIuRtcd7H9Vx4vGm-65" vertex="1">
          &#xa;          &#xa;          &#xa;          
          <mxGeometry x="230" y="57" width="120" height="30" as="geometry"/>
          &#xa;          &#xa;        &#xa;        
        </mxCell>
        &#xa;        &#xa;        &#xa;        
        <mxCell id="rShqJIuRtcd7H9Vx4vGm-95" value="&lt;span style=&quot;text-align: left&quot;&gt;&lt;font style=&quot;font-size: 12px&quot;&gt;FC Layer Activations&lt;/font&gt;&lt;/span&gt;" style="rounded=0;whiteSpace=wrap;html=1;strokeColor=none;fontSize=1;" parent="rShqJIuRtcd7H9Vx4vGm-65" vertex="1">
          &#xa;          &#xa;          &#xa;          
          <mxGeometry x="325" y="32" width="140" height="25" as="geometry"/>
          &#xa;          &#xa;        &#xa;        
        </mxCell>
        &#xa;        &#xa;        &#xa;        
        <mxCell id="rShqJIuRtcd7H9Vx4vGm-69" style="edgeStyle=orthogonalEdgeStyle;rounded=0;orthogonalLoop=1;jettySize=auto;html=1;exitX=1;exitY=0.5;exitDx=0;exitDy=0;exitPerimeter=0;fontSize=1;" parent="rShqJIuRtcd7H9Vx4vGm-87" source="rShqJIuRtcd7H9Vx4vGm-31" edge="1">
          &#xa;          &#xa;          &#xa;          
          <mxGeometry relative="1" as="geometry">
            &#xa;            &#xa;            &#xa;            
            <mxPoint x="470" y="127" as="targetPoint"/>
            &#xa;            &#xa;          &#xa;          
          </mxGeometry>
          &#xa;          &#xa;        &#xa;        
        </mxCell>
        &#xa;        &#xa;      &#xa;      
      </root>
      &#xa;      &#xa;    &#xa;    
    </mxGraphModel>
    &#xa;    &#xa;  &#xa;  
  </diagram>
</mxfile>
